<mxfile host="app.diagrams.net" agent="Mozilla/5.0 (Windows NT 10.0; Win64; x64; rv:132.0) Gecko/20100101 Firefox/132.0" version="24.8.4">
  <diagram name="Сторінка-1" id="uSQPeXertIpoC6isZNXC">
    <mxGraphModel dx="2257" dy="768" grid="1" gridSize="10" guides="1" tooltips="1" connect="1" arrows="1" fold="1" page="1" pageScale="1" pageWidth="827" pageHeight="1169" math="0" shadow="0">
      <root>
        <mxCell id="0" />
        <mxCell id="1" parent="0" />
        <mxCell id="yQrxdBQTwNWFjZo0aZIg-2" value="&lt;div style=&quot;font-size: 11px;&quot;&gt;&lt;font style=&quot;font-size: 11px;&quot;&gt;čas&lt;/font&gt;&lt;/div&gt;&lt;div style=&quot;font-size: 11px;&quot;&gt;&lt;font style=&quot;font-size: 11px;&quot;&gt;den poslední dopravy&lt;br&gt;&lt;/font&gt;&lt;/div&gt;" style="text;html=1;align=center;verticalAlign=middle;whiteSpace=wrap;rounded=0;" vertex="1" parent="1">
          <mxGeometry x="130" y="850" width="130" height="30" as="geometry" />
        </mxCell>
        <mxCell id="yQrxdBQTwNWFjZo0aZIg-3" value="&lt;div style=&quot;font-size: 11px;&quot;&gt;&lt;font style=&quot;font-size: 11px;&quot;&gt;cena&lt;/font&gt;&lt;/div&gt;&lt;div style=&quot;font-size: 11px;&quot;&gt;&lt;font style=&quot;font-size: 11px;&quot;&gt;Součet cen všech dostupných v daný period prostředků, vč. nevyužitých&lt;br&gt;&lt;/font&gt;&lt;/div&gt;" style="text;html=1;align=center;verticalAlign=middle;whiteSpace=wrap;rounded=0;" vertex="1" parent="1">
          <mxGeometry x="310" y="850" width="120" height="70" as="geometry" />
        </mxCell>
        <mxCell id="yQrxdBQTwNWFjZo0aZIg-4" value="" style="endArrow=classic;html=1;rounded=0;" edge="1" parent="1" target="yQrxdBQTwNWFjZo0aZIg-3">
          <mxGeometry width="50" height="50" relative="1" as="geometry">
            <mxPoint x="270" y="780" as="sourcePoint" />
            <mxPoint x="290" y="500" as="targetPoint" />
          </mxGeometry>
        </mxCell>
        <mxCell id="yQrxdBQTwNWFjZo0aZIg-5" value="" style="endArrow=classic;html=1;rounded=0;" edge="1" parent="1" target="yQrxdBQTwNWFjZo0aZIg-2">
          <mxGeometry width="50" height="50" relative="1" as="geometry">
            <mxPoint x="270" y="780" as="sourcePoint" />
            <mxPoint x="270" y="780" as="targetPoint" />
          </mxGeometry>
        </mxCell>
        <mxCell id="yQrxdBQTwNWFjZo0aZIg-7" value="dopravní prostředky&lt;br&gt;&lt;div align=&quot;left&quot;&gt;- Interval from to&lt;br&gt;- # zboží&lt;br&gt;&lt;/div&gt;&lt;div align=&quot;left&quot;&gt;- cena dne provozu&lt;/div&gt;" style="text;html=1;align=center;verticalAlign=middle;whiteSpace=wrap;rounded=0;" vertex="1" parent="1">
          <mxGeometry x="-250" y="180" width="120" height="70" as="geometry" />
        </mxCell>
        <mxCell id="yQrxdBQTwNWFjZo0aZIg-16" value="" style="endArrow=classic;html=1;rounded=0;entryX=0.501;entryY=0.111;entryDx=0;entryDy=0;entryPerimeter=0;exitX=0.473;exitY=1.008;exitDx=0;exitDy=0;exitPerimeter=0;" edge="1" parent="1" source="yQrxdBQTwNWFjZo0aZIg-17" target="yQrxdBQTwNWFjZo0aZIg-7">
          <mxGeometry width="50" height="50" relative="1" as="geometry">
            <mxPoint x="360" y="450" as="sourcePoint" />
            <mxPoint x="410" y="400" as="targetPoint" />
          </mxGeometry>
        </mxCell>
        <mxCell id="yQrxdBQTwNWFjZo0aZIg-18" value="" style="group" vertex="1" connectable="0" parent="1">
          <mxGeometry width="320" height="120" as="geometry" />
        </mxCell>
        <mxCell id="yQrxdBQTwNWFjZo0aZIg-17" value="" style="rounded=0;whiteSpace=wrap;html=1;movable=1;resizable=1;rotatable=1;deletable=1;editable=1;locked=0;connectable=1;" vertex="1" parent="yQrxdBQTwNWFjZo0aZIg-18">
          <mxGeometry width="320" height="120" as="geometry" />
        </mxCell>
        <mxCell id="yQrxdBQTwNWFjZo0aZIg-14" value="&lt;div style=&quot;font-size: 11px;&quot;&gt;&lt;font color=&quot;#ff6161&quot; style=&quot;font-size: 11px;&quot;&gt;readTransports&lt;/font&gt;&lt;/div&gt;&lt;div style=&quot;font-size: 13px;&quot; align=&quot;left&quot;&gt;&lt;font style=&quot;font-size: 13px;&quot;&gt;&lt;font color=&quot;#00ff11&quot;&gt;input&lt;/font&gt;:&lt;/font&gt;&lt;/div&gt;&lt;div style=&quot;font-size: 11px;&quot; align=&quot;left&quot;&gt;&lt;font style=&quot;font-size: 11px;&quot;&gt;&amp;amp; of a char[100000]&lt;/font&gt;&lt;/div&gt;&lt;div style=&quot;font-size: 11px;&quot; align=&quot;left&quot;&gt;&lt;font style=&quot;font-size: 11px;&quot;&gt;&amp;amp; of an int for # of transport&lt;br&gt;&lt;/font&gt;&lt;/div&gt;&lt;div style=&quot;font-size: 13px;&quot; align=&quot;left&quot;&gt;&lt;font style=&quot;font-size: 13px;&quot;&gt;&lt;font color=&quot;#00ff11&quot;&gt;output&lt;/font&gt;:&lt;/font&gt;&lt;/div&gt;&lt;div style=&quot;font-size: 11px;&quot; align=&quot;left&quot;&gt;&lt;font style=&quot;font-size: 11px;&quot;&gt;exitCode 1 if error&lt;br&gt;&lt;/font&gt;&lt;/div&gt;&lt;div style=&quot;font-size: 11px;&quot; align=&quot;left&quot;&gt;&lt;font style=&quot;font-size: 11px;&quot;&gt;ex: &lt;br&gt;{ [ 2 - 6, 3, 7 ] , [4-9,2,10],[ 15-30, 4, 12 ], [12-12,1,1] }&lt;/font&gt;&lt;/div&gt;" style="text;html=1;align=center;verticalAlign=middle;whiteSpace=wrap;rounded=0;movable=1;resizable=1;rotatable=1;deletable=1;editable=1;locked=0;connectable=1;" vertex="1" parent="yQrxdBQTwNWFjZo0aZIg-18">
          <mxGeometry x="10" y="5" width="300" height="110" as="geometry" />
        </mxCell>
        <mxCell id="yQrxdBQTwNWFjZo0aZIg-22" value="" style="group" vertex="1" connectable="0" parent="1">
          <mxGeometry x="320" width="170" height="120" as="geometry" />
        </mxCell>
        <mxCell id="yQrxdBQTwNWFjZo0aZIg-20" value="" style="rounded=0;whiteSpace=wrap;html=1;movable=1;resizable=1;rotatable=1;deletable=1;editable=1;locked=0;connectable=1;" vertex="1" parent="yQrxdBQTwNWFjZo0aZIg-22">
          <mxGeometry width="170" height="120" as="geometry" />
        </mxCell>
        <mxCell id="yQrxdBQTwNWFjZo0aZIg-21" value="&lt;div style=&quot;font-size: 11px;&quot;&gt;&lt;font color=&quot;#ff6161&quot; style=&quot;font-size: 11px;&quot;&gt;readProblem&lt;/font&gt;&lt;/div&gt;&lt;div style=&quot;font-size: 13px;&quot; align=&quot;left&quot;&gt;&lt;font style=&quot;font-size: 13px;&quot;&gt;&lt;font color=&quot;#00ff11&quot;&gt;input&lt;/font&gt;:&lt;/font&gt;&lt;/div&gt;&lt;div style=&quot;font-size: 11px;&quot; align=&quot;left&quot;&gt;&lt;font style=&quot;font-size: 11px;&quot;&gt;&amp;amp; of int[2]&lt;br&gt;&lt;/font&gt;&lt;/div&gt;&lt;div style=&quot;font-size: 13px;&quot; align=&quot;left&quot;&gt;&lt;font style=&quot;font-size: 13px;&quot;&gt;&lt;font color=&quot;#00ff11&quot;&gt;output&lt;/font&gt;:&lt;/font&gt;&lt;/div&gt;&lt;div style=&quot;font-size: 11px;&quot; align=&quot;left&quot;&gt;&lt;font style=&quot;font-size: 11px;&quot;&gt;exitCode 1 if error, -1 if EOF&lt;br&gt;&lt;/font&gt;&lt;/div&gt;&lt;div style=&quot;font-size: 11px;&quot; align=&quot;left&quot;&gt;&lt;font style=&quot;font-size: 11px;&quot;&gt;ex: &lt;br&gt;&lt;/font&gt;0 6&lt;/div&gt;" style="text;html=1;align=center;verticalAlign=middle;whiteSpace=wrap;rounded=0;movable=1;resizable=1;rotatable=1;deletable=1;editable=1;locked=0;connectable=1;" vertex="1" parent="yQrxdBQTwNWFjZo0aZIg-22">
          <mxGeometry x="10" y="7.5" width="150" height="105" as="geometry" />
        </mxCell>
        <mxCell id="yQrxdBQTwNWFjZo0aZIg-23" value="&lt;div align=&quot;center&quot;&gt;&lt;font color=&quot;#ff7373&quot;&gt;Error types:&lt;/font&gt;&lt;br&gt;&lt;/div&gt; &lt;ul style=&quot;font-size: 10px;&quot;&gt;&lt;li&gt;&lt;font style=&quot;font-size: 10px;&quot;&gt;chybějící složené závorky pro seznam dopravních prostředků,&lt;/font&gt;&lt;/li&gt;&lt;font style=&quot;font-size: 10px;&quot;&gt;&lt;br&gt;&lt;/font&gt; &lt;li&gt;&lt;font style=&quot;font-size: 10px;&quot;&gt;chybějící hranaté závorky pro zadání dopravního prostředku,&lt;/font&gt;&lt;/li&gt;&lt;font style=&quot;font-size: 10px;&quot;&gt;&lt;br&gt;&lt;/font&gt; &lt;li&gt;&lt;font style=&quot;font-size: 10px;&quot;&gt;chybějící čárka oddělující dopravní prostředky,&lt;/font&gt;&lt;/li&gt;&lt;font style=&quot;font-size: 10px;&quot;&gt;&lt;br&gt;&lt;/font&gt; &lt;li&gt;&lt;font style=&quot;font-size: 10px;&quot;&gt;neplatná nebo chybějící čísla (intervaly, kapacita, cena),&lt;/font&gt;&lt;/li&gt;&lt;font style=&quot;font-size: 10px;&quot;&gt;&lt;br&gt;&lt;/font&gt; &lt;li&gt;&lt;font style=&quot;font-size: 10px;&quot;&gt;počátek nebo konec intervalu je záporný,&lt;/font&gt;&lt;/li&gt;&lt;font style=&quot;font-size: 10px;&quot;&gt;&lt;br&gt;&lt;/font&gt; &lt;li&gt;&lt;font style=&quot;font-size: 10px;&quot;&gt;počátek intervalu je větší než konec intervalu,&lt;/font&gt;&lt;/li&gt;&lt;font style=&quot;font-size: 10px;&quot;&gt;&lt;br&gt;&lt;/font&gt; &lt;li&gt;&lt;font style=&quot;font-size: 10px;&quot;&gt;kapacita je záporná nebo nulová,&lt;/font&gt;&lt;/li&gt;&lt;font style=&quot;font-size: 10px;&quot;&gt;&lt;br&gt;&lt;/font&gt; &lt;li&gt;&lt;font style=&quot;font-size: 10px;&quot;&gt;cena je záporná nebo nulová,&lt;/font&gt;&lt;/li&gt;&lt;font style=&quot;font-size: 10px;&quot;&gt;&lt;br&gt;&lt;/font&gt; &lt;li&gt;&lt;font style=&quot;font-size: 10px;&quot;&gt;chybějící čárka oddělující interval/kapacitu/cenu u dopravního prostředku,&lt;/font&gt;&lt;/li&gt;&lt;font style=&quot;font-size: 10px;&quot;&gt;&lt;br&gt;&lt;/font&gt; &lt;li&gt;&lt;font style=&quot;font-size: 10px;&quot;&gt;dopravních prostředků je více než 100000,&lt;/font&gt;&lt;/li&gt;&lt;font style=&quot;font-size: 10px;&quot;&gt;&lt;br&gt;&lt;/font&gt; &lt;li&gt;&lt;font style=&quot;font-size: 10px;&quot;&gt;neplatné zadání řešeného problému (nečíselný nebo záporný počáteční den, nečíselný, nulový nebo záporný počet kusů zboží).&lt;/font&gt;&lt;/li&gt;&lt;font style=&quot;font-size: 10px;&quot;&gt;&lt;br&gt;&lt;/font&gt;&lt;/ul&gt;" style="text;whiteSpace=wrap;html=1;" vertex="1" parent="1">
          <mxGeometry x="120" y="150" width="320" height="300" as="geometry" />
        </mxCell>
        <mxCell id="yQrxdBQTwNWFjZo0aZIg-24" value="" style="endArrow=classic;html=1;rounded=0;exitX=0.5;exitY=1;exitDx=0;exitDy=0;entryX=0;entryY=0;entryDx=0;entryDy=0;" edge="1" parent="1" source="yQrxdBQTwNWFjZo0aZIg-7" target="yQrxdBQTwNWFjZo0aZIg-29">
          <mxGeometry width="50" height="50" relative="1" as="geometry">
            <mxPoint x="690" y="450" as="sourcePoint" />
            <mxPoint x="210" y="340" as="targetPoint" />
          </mxGeometry>
        </mxCell>
        <mxCell id="yQrxdBQTwNWFjZo0aZIg-25" value="" style="endArrow=classic;html=1;rounded=0;exitX=0.5;exitY=1;exitDx=0;exitDy=0;entryX=0.5;entryY=0;entryDx=0;entryDy=0;" edge="1" parent="1" source="yQrxdBQTwNWFjZo0aZIg-20" target="yQrxdBQTwNWFjZo0aZIg-26">
          <mxGeometry width="50" height="50" relative="1" as="geometry">
            <mxPoint x="440" y="340" as="sourcePoint" />
            <mxPoint x="430" y="190" as="targetPoint" />
          </mxGeometry>
        </mxCell>
        <mxCell id="yQrxdBQTwNWFjZo0aZIg-26" value="Problemy&lt;br&gt;&lt;div&gt;-From&lt;/div&gt;&lt;div&gt;- # zboží&lt;br&gt;&lt;/div&gt;" style="text;html=1;align=center;verticalAlign=middle;whiteSpace=wrap;rounded=0;" vertex="1" parent="1">
          <mxGeometry x="710" y="195" width="70" height="40" as="geometry" />
        </mxCell>
        <mxCell id="yQrxdBQTwNWFjZo0aZIg-27" value="" style="endArrow=classic;html=1;rounded=0;exitX=0.5;exitY=1;exitDx=0;exitDy=0;entryX=1;entryY=0;entryDx=0;entryDy=0;" edge="1" parent="1" source="yQrxdBQTwNWFjZo0aZIg-26" target="yQrxdBQTwNWFjZo0aZIg-29">
          <mxGeometry width="50" height="50" relative="1" as="geometry">
            <mxPoint x="440" y="340" as="sourcePoint" />
            <mxPoint x="405" y="330" as="targetPoint" />
          </mxGeometry>
        </mxCell>
        <mxCell id="yQrxdBQTwNWFjZo0aZIg-30" value="" style="group" vertex="1" connectable="0" parent="1">
          <mxGeometry y="530" width="520" height="250" as="geometry" />
        </mxCell>
        <mxCell id="yQrxdBQTwNWFjZo0aZIg-28" value="&lt;div align=&quot;left&quot;&gt;&lt;br&gt;&lt;/div&gt;" style="rounded=0;whiteSpace=wrap;html=1;align=left;" vertex="1" parent="yQrxdBQTwNWFjZo0aZIg-30">
          <mxGeometry width="520" height="250" as="geometry" />
        </mxCell>
        <mxCell id="yQrxdBQTwNWFjZo0aZIg-29" value="&lt;p style=&quot;line-height: 120%;&quot;&gt;&lt;/p&gt;&lt;div style=&quot;padding-top: 0px; margin-top: 0px; margin-bottom: 240px;&quot; align=&quot;left&quot;&gt;Main function&lt;br&gt;&lt;/div&gt;&lt;p&gt;&lt;/p&gt;" style="text;html=1;align=left;verticalAlign=middle;whiteSpace=wrap;rounded=0;" vertex="1" parent="yQrxdBQTwNWFjZo0aZIg-30">
          <mxGeometry width="520" height="245" as="geometry" />
        </mxCell>
        <mxCell id="yQrxdBQTwNWFjZo0aZIg-31" value="" style="endArrow=classic;startArrow=classic;html=1;rounded=0;entryX=0.533;entryY=0.997;entryDx=0;entryDy=0;entryPerimeter=0;exitX=0.5;exitY=0;exitDx=0;exitDy=0;" edge="1" parent="1" source="yQrxdBQTwNWFjZo0aZIg-23" target="yQrxdBQTwNWFjZo0aZIg-20">
          <mxGeometry width="50" height="50" relative="1" as="geometry">
            <mxPoint x="420" y="400" as="sourcePoint" />
            <mxPoint x="470" y="350" as="targetPoint" />
          </mxGeometry>
        </mxCell>
        <mxCell id="yQrxdBQTwNWFjZo0aZIg-32" value="" style="endArrow=classic;startArrow=classic;html=1;rounded=0;entryX=0.477;entryY=1.02;entryDx=0;entryDy=0;entryPerimeter=0;exitX=0.5;exitY=0;exitDx=0;exitDy=0;" edge="1" parent="1" source="yQrxdBQTwNWFjZo0aZIg-23" target="yQrxdBQTwNWFjZo0aZIg-17">
          <mxGeometry width="50" height="50" relative="1" as="geometry">
            <mxPoint x="290" y="160" as="sourcePoint" />
            <mxPoint x="421" y="130" as="targetPoint" />
          </mxGeometry>
        </mxCell>
      </root>
    </mxGraphModel>
  </diagram>
</mxfile>
